<?xml version="1.0" standalone="no"?><!DOCTYPE svg PUBLIC "-//W3C//DTD SVG 1.1//EN"
        "http://www.w3.org/Graphics/SVG/1.1/DTD/svg11.dtd">
<svg t="1594047287382" class="icon" viewBox="0 0 1241 1024" version="1.1" xmlns="http://www.w3.org/2000/svg" p-id="5068"
     xmlns:xlink="http://www.w3.org/1999/xlink" width="242.3828125" height="200">
    <defs>
        <style type="text/css"></style>
    </defs>
    <path d="M206.868687 227.555556h231.155071v378.424888H206.868687z" fill="#122620" p-id="5069"></path>
    <path d="M325.166545 564.079192q-27.306667 0-30.926868-10.96404-14.480808 0-14.480808-12.722425l-5.482021-43.649293v-54.509899q-7.240404 0-12.722424-5.48202l-3.620202-3.620202q-7.343838 0-10.96404-5.48202-9.102222-9.102222-9.102222-29.065051 0-18.204444 10.96404-25.444848 3.620202-1.861818 12.722424-1.861818h10.860606v-34.547071q0-25.444848 1.861818-36.305454 0-43.649293 18.204445-36.408889 21.824646-1.758384 50.889697-1.758384 27.306667 0 38.167273 1.758384 5.48202 0 9.102222 9.102222h5.48202q9.102222 3.620202 9.102222 10.96404l1.758384 18.10101q0 12.722424-5.48202 21.824647-1.758384 7.343838-10.860606 7.343838-23.686465 0-29.065051-1.861818h-7.343838l-5.378586 1.861818v43.545859q12.722424 0 19.962828 3.723636l3.620202 5.378586 10.964041 3.620202q7.240404 7.343838 7.240404 21.824646 0 21.824646-3.620202 29.168485-3.620202 5.378586-36.408889 5.378586V500.363636l3.620202 47.269495q0 16.446061-29.065051 16.446061z m-14.584242-20.066263q18.204444 0 18.204444-5.48202l-3.620202-47.269495v-36.305454q0-21.824646-1.861818-30.926869h1.861818q36.408889 0 38.167273-1.861818 1.861818-3.620202 1.861818-21.721212 0-9.102222-3.620202-12.825859-10.96404-3.620202-38.270707-3.620202 0-67.232323 1.861818-70.852525l12.722425-3.620202h10.96404q3.620202 1.758384 29.065051 1.758384 3.620202-7.240404 3.620202-18.204445l-1.861819-18.10101q-21.824646-3.723636-45.407676-3.723636l-45.407677 1.861818q-3.723636 3.620202-3.723636 29.06505-1.758384 9.102222-1.758384 34.547071v45.511111h-27.306667q-7.240404 1.758384-7.240404 16.342626 0 16.342626 7.240404 23.583031h27.306667q1.758384 12.825859 1.758384 36.408889v38.167272l5.48202 43.649293q0 3.620202 19.962828 3.620202zM521.257374 562.217374q-9.102222 0-18.204445-5.48202l-3.620202-3.620202-10.96404-5.482021q-7.240404-5.378586-7.240404-61.750303l-1.861818-127.327676q0-89.05697 9.102222-92.677172 7.343838-5.48202 25.444848-7.343839 23.686465 0 29.168485 10.964041 18.10101 3.620202 16.342626 19.962828 1.758384 18.204444 1.758384 114.605253v134.464646q3.620202 9.102222-1.758384 12.825859-7.343838 7.240404-16.342626 8.998788-5.48202 1.861818-21.824646 1.861818z m-14.584243-19.962829q14.584242 0 18.204445-1.861818 9.102222-1.861818 12.722424-5.48202-1.861818-7.240404-1.861818-47.269495v-92.677172q0-118.225455-1.758384-119.983838-1.861818-5.48202-18.204444-5.48202l-21.824647 5.48202q-3.620202 3.620202-3.620202 90.918788l1.758384 170.873535q7.343838 5.48202 14.584242 5.48202zM671.340606 574.939798q-18.204444 0-23.686465-1.861818-7.240404-1.758384-14.480808-8.998788-20.066263-5.48202-23.686464-30.926869-3.620202-14.584242-5.482021-65.473939v-72.714344q0-9.102222 1.861819-10.96404 3.620202-5.378586 7.240404-7.240404 10.96404-3.620202 18.204444-3.620202 25.444848 0 32.685253 7.240404l3.723636-1.758384q27.203232-9.102222 61.750303-9.102222 23.686465 0 36.408889 1.758384 7.240404 0 10.860606 9.102222h3.620202q10.96404 0 10.96404 10.96404l1.758384 25.444849v41.787475l-1.758384 14.584242q0 10.860606-1.861818 14.480808-1.758384 7.343838-9.102222 9.102222-7.240404 1.861818-13.549899 1.861819h-15.515151q-5.48202 1.758384-19.962829 1.758383l-16.342626 1.861819-29.168485 3.620202h-3.620202v1.861818h3.620202q16.446061 0 29.168485-1.861818 36.305455-5.48202 32.685253-3.620202 1.861818 0 6.412929-1.861819 4.447677-1.758384 8.171313 3.620202l5.378586 5.482021q7.343838 0 9.102222 3.620202 12.722424 10.96404 12.722424 29.168484 0 10.860606-1.758384 16.342627-3.620202 9.102222-10.96404 9.102222l-65.473939 5.378586q-18.10101 1.861818-39.925657 1.861818z m-14.584242-19.962828q21.824646 0 38.167272-1.861818l67.335758-5.482021q1.758384-5.378586 1.758384-14.480808 0-14.584242-7.240404-21.824646-9.102222 3.620202-41.787475 5.48202-12.722424 1.758384-29.168485 1.758384h-16.342626q-7.240404 0-7.240404-1.758384-5.48202-9.102222-5.48202-38.270707v-89.05697q-1.758384-5.48202-25.444849-5.48202-12.722424 0-16.342626 3.620202v80.058182q3.620202 50.889697 5.48202 63.612121 3.620202 20.066263 16.342626 21.824647 1.758384 1.861818 19.962829 1.861818z m25.444848-118.225455l1.861818-1.758384-1.861818-3.723636v5.48202z m-16.342626 49.131313l32.685252-3.620202 36.408889-3.723636h9.102222q19.962828 0 19.962829-1.758384 0 1.758384 3.620202-27.306667v-41.787474q0-23.686465-3.620202-27.306667-59.991919-3.620202-90.918788 7.240404v10.96404q0 12.722424 5.48202 21.824647h7.240404q7.343838 0 12.722424-1.861818 5.48202-1.758384 16.446061-1.758384h12.722424q1.758384 5.378586 1.758384 14.480808-1.758384 5.48202-1.758384 16.446061-18.204444-3.723636-30.926868-1.861819l-32.788687 3.620202q-7.240404 1.861818-5.378586 16.342627 0 14.584242 7.240404 20.066262z"
          fill="#FAC958" p-id="5070"></path>
    <path d="M892.710788 565.837576h-1.861818l-7.240404-3.620202-10.964041-5.48202-1.758384-1.758384-0.930909-0.930909-0.930909-0.930909-10.860606-5.482021q-12.722424-12.722424-14.584242-19.962828-3.620202-9.102222 1.861818-14.584242l40.029091-49.027879-45.511111-45.511111q-5.48202-3.620202-5.48202-9.102223 0-7.240404 14.584242-21.824646 3.620202-5.378586 14.584242-12.722424l3.620202-3.620202h7.240404q7.240404 1.861818 12.722425 7.343838l3.620202 3.620202q5.48202 0 10.96404 5.378586l25.444849 23.686465 30.926868-40.029091q7.240404-7.240404 16.342627-1.758384l9.102222 7.240404 5.378586 1.861818 14.584242 10.860606q12.722424 7.240404 18.204444 19.962828 3.620202 9.102222-1.861818 14.584243l-36.305454 45.511111 39.925656 39.925657q5.48202 7.343838 5.482021 14.584242 0 5.48202-3.620202 16.342626l-9.102223 9.102222q-7.240404 7.240404-18.204444 10.860607-9.102222 5.48202-14.480808-3.620202l-5.48202-3.620202q-3.620202 0-9.102223-5.482021l-27.306666-25.444848-30.823435 34.547071q-5.48202 7.343838-12.722424 7.343838h-7.343838l1.861818 1.758384z m-9.102222-18.204445l45.407676-54.509899 49.131314 49.131313q10.860606-3.723636 19.962828-12.722424 5.48202-9.102222 5.48202-18.204444l-49.131313-50.889697 43.649293-54.613334q-3.620202-9.102222-14.480808-16.342626l-16.342627-10.860606-41.890909 52.648081-50.889697-50.889697-18.204444 14.584242q-9.102222 9.102222-10.860606 14.480808l54.509899 54.613334-47.269495 58.130101q3.620202 9.102222 12.722424 16.342626l9.102222 5.48202q1.861818 1.861818 4.551112 1.861818t4.551111 1.758384z"
          fill="#FAC958" p-id="5071"></path>
</svg>
